<svg width="66" height="54" viewBox="0 0 66 54" fill="none" xmlns="http://www.w3.org/2000/svg">
<g clip-path="url(#clip0_1_6)">
<path d="M37.4678 16.3608L36.2141 15.3917C36.0181 15.2311 35.7675 15.1552 35.5166 15.1806C35.2657 15.206 35.0349 15.3306 34.8742 15.5274L17.5233 35.7044L17.7912 36.0049L22.0883 31.9927C21.9451 31.9344 21.8266 31.827 21.7534 31.6894C21.6802 31.5518 21.657 31.3925 21.6877 31.2393C21.7184 31.0861 21.8011 30.9487 21.9215 30.8508C22.0419 30.753 22.1923 30.701 22.3467 30.7038C22.4859 30.7038 22.6214 30.7489 22.7334 30.8327C22.8453 30.9164 22.9278 31.0343 22.9688 31.169L28.6344 25.8485C28.7211 25.7777 28.8292 25.7391 28.9406 25.7391C29.0521 25.7391 29.1601 25.7777 29.2469 25.8485L29.534 26.0617C29.6311 26.1322 29.7508 26.1633 29.8695 26.149C29.9881 26.1346 30.0972 26.0759 30.1752 25.9842L37.5826 17.5722C37.6614 17.4887 37.7214 17.389 37.7587 17.2799C37.796 17.1708 37.8097 17.0549 37.7988 16.9399C37.7879 16.825 37.7527 16.7138 37.6956 16.6139C37.6385 16.514 37.5608 16.4277 37.4678 16.3608Z" fill="#303030"/>
<path d="M45.6216 22.0398C41.8246 24.7756 37.571 26.7947 33.0654 27.9999C28.5936 29.1515 24.0178 29.8399 19.4086 30.0544C19.5014 30.7427 19.6683 31.4186 19.9062 32.0702C22.5093 34.4542 42.1093 30.3839 45.9375 25.674C46.7509 24.6952 45.6216 22.0398 45.6216 22.0398ZM22.3467 31.9926C22.2179 31.9926 22.0921 31.954 21.9851 31.8816C21.8781 31.8092 21.7947 31.7062 21.7454 31.5858C21.6962 31.4654 21.6833 31.3329 21.7084 31.2051C21.7335 31.0772 21.7955 30.9598 21.8865 30.8677C21.9775 30.7755 22.0935 30.7127 22.2197 30.6873C22.3459 30.6619 22.4768 30.6749 22.5957 30.7248C22.7146 30.7747 22.8163 30.8591 22.8878 30.9675C22.9593 31.0759 22.9974 31.2033 22.9974 31.3336C22.9987 31.4205 22.9828 31.5068 22.9505 31.5874C22.9183 31.6679 22.8704 31.7411 22.8097 31.8025C22.749 31.864 22.6768 31.9125 22.5972 31.9451C22.5177 31.9778 22.4325 31.9939 22.3467 31.9926Z" fill="#303030"/>
<path d="M3.82878 20.6442L3.9819 19.9756L6.47018 20.5473C6.67547 20.9313 6.8024 21.3532 6.84343 21.7878C6.89092 22.2482 6.86181 22.7133 6.75729 23.164C6.63341 23.7893 6.3496 24.3708 5.93425 24.8502C5.53907 25.3029 5.02954 25.6379 4.46042 25.8193C3.87385 26.0025 3.24997 26.0259 2.65163 25.8872C2.05197 25.756 1.49924 25.4611 1.05339 25.0343C0.614367 24.6244 0.299118 24.0968 0.144207 23.5128C-0.0276427 22.8785 -0.0276427 22.209 0.144207 21.5746C0.247067 21.0998 0.431725 20.6471 0.689715 20.2372C0.933891 19.8644 1.26187 19.5555 1.64675 19.3359L1.99128 19.869C1.66139 20.0741 1.37822 20.3477 1.16046 20.6718C0.9427 20.9958 0.795301 21.363 0.727996 21.749C0.609312 22.2504 0.619195 22.7742 0.756707 23.2706C0.885303 23.7419 1.14038 24.1679 1.49362 24.5013C1.8567 24.8567 2.31096 25.1018 2.80475 25.2088C3.28358 25.3449 3.79018 25.3449 4.26901 25.2088C4.72771 25.0555 5.13969 24.7851 5.4653 24.4238C5.79992 24.0336 6.03052 23.5632 6.13522 23.0573C6.29268 22.4437 6.25245 21.7952 6.02038 21.2063L3.82878 20.6442Z" fill="#303030"/>
<path d="M9.24495 14.5485L7.01506 17.5624L7.97209 19.2971L7.53186 19.898L3.99084 13.3564L4.40237 12.7847L11.6088 14.3546L11.159 14.9555L9.24495 14.5485ZM8.61331 14.3934L4.78518 13.5212L6.69924 17.0003L8.61331 14.3934Z" fill="#303030"/>
<path d="M8.61328 8.29768L9.1875 7.86157L12.8338 12.8041L15.8389 10.5266L16.2025 11.0209L12.6328 13.7247L8.61328 8.29768Z" fill="#303030"/>
<path d="M14.6426 4.25656L15.2838 3.96582L17.8104 9.56732L21.227 7.99735L21.4758 8.55944L17.418 10.4298L14.6426 4.25656Z" fill="#303030"/>
<path d="M27.2563 6.48546L27.3998 7.09601L22.7869 8.19111L21.2557 1.58173L25.7346 0.525391L25.8686 1.12624L22.0404 2.02752L22.586 4.37279L25.9547 3.56842L26.0983 4.16927L22.7199 4.96395L23.2942 7.41582L27.2563 6.48546Z" fill="#303030"/>
<path d="M33.831 6.72775L32.2328 4.59569C32.0543 4.60569 31.8754 4.60569 31.6969 4.59569L29.8976 4.65384L29.9646 6.80528H29.2564L29.0363 0.0214532L31.582 0.011762C32.3018 -0.0555511 33.0215 0.140415 33.6109 0.564159C33.8593 0.766699 34.059 1.02373 34.1949 1.31584C34.3309 1.60795 34.3995 1.92752 34.3957 2.25042C34.4236 2.72935 34.2996 3.20477 34.0416 3.60719C33.7666 3.99344 33.378 4.28176 32.9314 4.43094L34.6062 6.69867L33.831 6.72775ZM33.1611 3.53935C33.3331 3.37978 33.4666 3.1823 33.5512 2.96217C33.6359 2.74204 33.6694 2.50515 33.6492 2.26981C33.6541 2.03322 33.6059 1.79859 33.5081 1.58368C33.4102 1.36877 33.2654 1.17921 33.0846 1.02934C32.6435 0.726466 32.113 0.586195 31.582 0.631997L29.7637 0.699836L29.8785 4.09175L31.6586 4.0336C32.2014 4.05394 32.7337 3.87883 33.1611 3.53935Z" fill="#303030"/>
<path d="M38.8938 4.92515L38.5492 7.24134L37.8506 7.13473L38.2047 4.85731L36.2236 0.0117188L36.9701 0.128013L38.6641 4.25645L41.5352 0.835469L42.2051 0.980836L38.8938 4.92515Z" fill="#303030"/>
<path d="M48.3588 4.51805L49.1914 5.61315L48.8277 5.90389L47.9951 4.77971L47.4687 6.04925L47.0668 5.87481L47.6027 4.60527L46.2246 4.7894V4.32422L47.5836 4.16917L46.7414 3.07406L47.1146 2.78333L47.8516 3.88812L48.3684 2.60889L48.7799 2.78333L48.2918 4.08195L49.6699 3.88812V4.36299L48.3588 4.51805Z" fill="#303030"/>
<path d="M51.5553 12.3291C51.3293 11.9762 51.1883 11.5746 51.1437 11.1565L51.7084 10.9045C51.7507 11.2886 51.8748 11.659 52.0721 11.9899C52.2858 12.361 52.5648 12.6894 52.8951 12.959C53.2362 13.2898 53.6715 13.5034 54.1392 13.5696C54.3082 13.5854 54.4785 13.5593 54.6353 13.4934C54.7921 13.4276 54.9306 13.324 55.0389 13.1916C55.1182 13.1029 55.1787 12.9987 55.2166 12.8853C55.2545 12.7719 55.2689 12.6519 55.259 12.5326C55.2273 12.2964 55.1492 12.069 55.0293 11.8639C54.8494 11.5665 54.6546 11.2786 54.4455 11.0014C54.1907 10.6634 53.9604 10.3071 53.7564 9.93537C53.6005 9.65715 53.515 9.34419 53.5076 9.0244C53.5069 8.66526 53.6403 8.31913 53.8808 8.05528C54.0894 7.79956 54.3646 7.60818 54.6752 7.50288C55.0222 7.40138 55.3905 7.40138 55.7375 7.50288C56.1846 7.65094 56.5979 7.8882 56.9529 8.20065C57.2476 8.44881 57.5083 8.73561 57.7281 9.05347C57.9314 9.34824 58.0835 9.67598 58.1779 10.0226L57.6324 10.3133C57.5373 9.99026 57.3954 9.68327 57.2113 9.40235C57.028 9.15149 56.8123 8.9266 56.5701 8.73366C56.234 8.4044 55.8001 8.19661 55.3355 8.1425C55.1648 8.12804 54.9932 8.15679 54.8362 8.22614C54.6792 8.2955 54.5416 8.4033 54.4359 8.53984C54.3545 8.62714 54.2927 8.73123 54.2547 8.84497C54.2167 8.95871 54.2035 9.07942 54.2158 9.19884C54.2382 9.44322 54.3169 9.67889 54.4455 9.88691C54.5795 10.1098 54.7709 10.4005 55.0293 10.7494C55.2854 11.0797 55.5158 11.4296 55.7184 11.7961C55.8776 12.0734 55.9664 12.3864 55.9767 12.707C55.9774 13.0662 55.8441 13.4123 55.6035 13.6762C55.3942 13.9354 55.1148 14.1273 54.7996 14.2286C54.4532 14.3345 54.0837 14.3345 53.7373 14.2286C53.2871 14.081 52.8706 13.8437 52.5123 13.5308C52.126 13.1903 51.802 12.7835 51.5553 12.3291Z" fill="#303030"/>
<path d="M61.183 13.7441L59.8336 11.8058L60.3313 11.4473L63.4416 15.944L62.944 16.3025L61.5946 14.3643L56.5989 17.9016L56.1969 17.3104L61.183 13.7441Z" fill="#303030"/>
<path d="M59.0392 21.7103C59.2101 21.1246 59.542 20.6002 59.9963 20.1985C60.4406 19.7955 60.982 19.5181 61.5658 19.3941C62.161 19.2558 62.7817 19.2792 63.365 19.4619C63.9281 19.6504 64.4328 19.9845 64.8293 20.4311C65.2415 20.9113 65.5221 21.4928 65.6427 22.1173C65.8013 22.7305 65.8013 23.3746 65.6427 23.9877C65.4672 24.5713 65.136 25.0944 64.6857 25.4996C64.2291 25.9134 63.6744 26.2005 63.0757 26.333C62.477 26.4655 61.8546 26.4388 61.2691 26.2555C60.7017 26.0761 60.1948 25.7406 59.8049 25.2863C59.3944 24.8086 59.1141 24.2307 58.9914 23.6098C58.8452 22.983 58.8617 22.3287 59.0392 21.7103ZM60.2929 24.7921C60.6125 25.1606 61.0265 25.4323 61.4892 25.5771C61.9661 25.7172 62.4701 25.7338 62.955 25.6254C63.4399 25.517 63.8902 25.2872 64.2646 24.9568C64.6179 24.6277 64.8787 24.2098 65.0207 23.7455C65.1541 23.2552 65.1672 22.7393 65.0588 22.2427C64.9504 21.7461 64.7237 21.2839 64.3986 20.8962C64.065 20.526 63.6383 20.2547 63.164 20.1113C62.6811 19.9814 62.1731 19.9814 61.6902 20.1113C61.2029 20.2059 60.7519 20.4377 60.3886 20.78C60.0322 21.1102 59.7709 21.5322 59.6326 22.001C59.5027 22.4931 59.5027 23.0111 59.6326 23.5032C59.7374 23.984 59.9651 24.4284 60.2929 24.7921Z" fill="#303030"/>
<path d="M58.3119 32.9617L60.7906 31.9926C60.7906 31.8181 60.848 31.6437 60.8959 31.4596L61.3648 29.7055L59.3359 29.1724L59.5178 28.4844L65.9873 30.2385L65.3365 32.6903C65.1899 33.4058 64.7963 34.0449 64.2264 34.4929C63.9645 34.6771 63.664 34.7974 63.3486 34.8445C63.0331 34.8916 62.7112 34.8641 62.408 34.7643C61.9462 34.6628 61.5323 34.4049 61.2348 34.0331C60.9372 33.6614 60.7738 33.1979 60.7715 32.7194L58.1301 33.6885L58.3119 32.9617ZM61.518 33.233C61.6301 33.439 61.7821 33.6199 61.9651 33.7648C62.148 33.9097 62.3579 34.0157 62.5823 34.0763C62.8067 34.137 63.0409 34.1511 63.2708 34.1177C63.5007 34.0844 63.7215 34.0043 63.9201 33.8824C64.3425 33.5388 64.6308 33.0546 64.7336 32.5159L65.193 30.7715L61.9486 29.8896L61.4892 31.634C61.3127 32.1538 61.3228 32.7201 61.518 33.233Z" fill="#303030"/>
<path d="M54.8761 39.2028L54.3881 38.8248L57.2592 34.9968L62.5994 39.0962L59.824 42.8079L59.3359 42.43L61.6806 39.2997L59.7666 37.8363L57.6707 40.6371L57.1922 40.2688L59.3359 37.4681L57.3549 35.9466L54.8761 39.2028Z" fill="#303030"/>
<path d="M52.6367 46.9266L51.2682 47.0041V46.5389L52.6367 46.5293L51.8998 45.376L52.2731 45.1337L53.0004 46.2967L53.5938 44.998L54.0053 45.2209L53.3545 46.442L54.7231 46.3645V46.8394H53.3354L54.0723 47.9926L53.699 48.2349L52.9717 47.072L52.3401 48.3318L51.9381 48.0992L52.6367 46.9266Z" fill="#303030"/>
<path d="M40.1953 46.1514L41.3533 46.8007C41.5474 46.423 41.8184 46.0913 42.1483 45.8274C42.4782 45.5635 42.8596 45.3733 43.2674 45.2695C43.6477 45.1494 44.0478 45.1065 44.4445 45.1435C44.7888 45.1702 45.1194 45.2908 45.4015 45.4924C45.6566 45.687 45.8442 45.9584 45.9375 46.2677C46.0528 46.6502 46.0325 47.0616 45.8801 47.4306C45.6399 47.932 45.3162 48.3877 44.923 48.7777C45.2386 48.9494 45.5312 49.161 45.7939 49.4076C45.9744 49.5965 46.1088 49.8255 46.1863 50.0763C46.2354 50.2718 46.2384 50.4763 46.1952 50.6732C46.152 50.8701 46.0637 51.0541 45.9375 51.2101C45.682 51.5829 45.3008 51.8483 44.8656 51.9564C44.4835 52.1039 44.061 52.1039 43.6789 51.9564C43.509 51.8824 43.3583 51.7695 43.2387 51.6265C43.1192 51.4836 43.034 51.3145 42.9898 51.1326C42.8895 50.8127 42.9134 50.4661 43.0568 50.1635C43.2765 49.7229 43.564 49.3206 43.9086 48.9715L41.6021 47.6729C41.5141 48.1292 41.4948 48.5965 41.5447 49.0587H40.9609C40.9216 48.4895 40.9865 47.9178 41.1523 47.3724L39.9465 46.6941L40.1953 46.1514ZM41.8605 47.1205L44.3967 48.5451C44.729 48.2237 45.0042 47.8466 45.2101 47.4306C45.3153 47.1496 45.3153 46.8394 45.2101 46.5584C45.1667 46.3905 45.0828 46.2362 44.9658 46.1093C44.8489 45.9824 44.7026 45.887 44.5402 45.8315C44.1429 45.6957 43.7125 45.6957 43.3152 45.8315C42.9906 45.9183 42.6886 46.076 42.4307 46.2937C42.1727 46.5114 41.965 46.7837 41.8223 47.0914L41.8605 47.1205ZM45.459 50.9969C45.5215 50.8899 45.5607 50.7705 45.5739 50.6468C45.5871 50.5231 45.574 50.3979 45.5355 50.2798C45.4769 50.0884 45.3716 49.9151 45.2293 49.7759C44.9857 49.5678 44.7191 49.3889 44.4349 49.2428C44.1448 49.5334 43.8909 49.8589 43.6789 50.212C43.5632 50.4321 43.5358 50.689 43.6023 50.9291C43.6327 51.04 43.6859 51.1431 43.7585 51.2316C43.8311 51.3202 43.9214 51.3921 44.0234 51.4427C44.2671 51.5357 44.5358 51.5357 44.7795 51.4427C45.0397 51.3724 45.2669 51.2111 45.4207 50.9872L45.459 50.9969Z" fill="#303030"/>
<path d="M28.5291 53.6234L28.6631 46.8396H29.3426L29.2373 52.2667L31.9553 47.7506H32.2902L34.836 52.3442L34.9317 46.9462H35.6111L35.4867 53.73H34.9029L32.0893 48.6615L29.1129 53.6331L28.5291 53.6234Z" fill="#303030"/>
<path d="M25.1986 46.5293C25.6362 46.9516 25.9494 47.4888 26.1032 48.0809C26.257 48.673 26.2453 49.2967 26.0695 49.8824C25.9123 50.4822 25.5982 51.0279 25.1603 51.4621C24.7348 51.8856 24.2013 52.1809 23.6195 52.3149C23.0058 52.4551 22.3669 52.4351 21.7629 52.2568C21.1609 52.1079 20.6071 51.8041 20.1551 51.3749C19.7239 50.9579 19.4158 50.4277 19.265 49.8437C19.1178 49.2399 19.1287 48.6077 19.2965 48.0094C19.4644 47.4112 19.7834 46.8676 20.222 46.4324C20.64 46.0099 21.1622 45.7087 21.7342 45.5602C22.3447 45.4203 22.9804 45.4403 23.5812 45.6183C24.1894 45.7744 24.7469 46.0884 25.1986 46.5293ZM21.9351 46.1901C21.467 46.3005 21.0391 46.5423 20.7006 46.8878C20.348 47.2434 20.0968 47.6887 19.9732 48.1768C19.8398 48.6618 19.8398 49.1745 19.9732 49.6595C20.0861 50.1314 20.3283 50.5614 20.6719 50.9C21.0322 51.2568 21.4771 51.5138 21.9638 51.6462C22.4505 51.7717 22.9605 51.7717 23.4472 51.6462C23.9158 51.5296 24.3452 51.2887 24.6914 50.9484C25.042 50.5914 25.293 50.1467 25.4187 49.6595C25.5525 49.1713 25.5525 48.6553 25.4187 48.1671C25.2962 47.697 25.0517 47.2687 24.7105 46.9266C24.3483 46.5693 23.8993 46.3152 23.409 46.1901C22.9267 46.0551 22.4174 46.0551 21.9351 46.1901Z" fill="#303030"/>
<path d="M14.6904 41.6838L14.9488 44.3489C15.113 44.4199 15.2727 44.5008 15.4273 44.5912L16.9873 45.5022L18.04 43.6221L18.6621 43.9806L15.3125 49.8244L13.1304 48.5549C12.4855 48.2267 11.9767 47.6772 11.6949 47.0043C11.5909 46.7011 11.5558 46.3781 11.5922 46.0592C11.6287 45.7404 11.7357 45.434 11.9054 45.163C12.1279 44.7382 12.4805 44.3981 12.9103 44.1938C13.3468 44.0107 13.8296 43.9734 14.2885 44.0872L14.0109 41.238L14.6904 41.6838ZM13.5994 44.7462C13.3746 44.8033 13.1635 44.9058 12.9788 45.0474C12.794 45.1891 12.6394 45.367 12.5241 45.5706C12.4088 45.7742 12.3353 45.9992 12.3079 46.2322C12.2806 46.4653 12.2999 46.7015 12.3648 46.9268C12.5892 47.4283 12.978 47.8358 13.4654 48.08L15.0062 48.9813L16.681 46.0739L15.1402 45.1727C14.6973 44.8366 14.1521 44.6686 13.5994 44.6978V44.7462Z" fill="#303030"/>
<path d="M9.0248 37.1387L9.45547 36.7026L12.7572 40.143L7.97207 44.8723L4.78516 41.5385L5.22539 41.1024L7.93379 43.9226L9.57031 42.246L7.19687 39.7457L7.65625 39.2999L10.0775 41.8196L11.8576 40.0655L9.0248 37.1387Z" fill="#303030"/>
<path d="M1.91407 33.3301L2.14376 31.9927L2.59357 32.0605L2.33517 33.4367L3.60802 32.9618L3.76115 33.3882L2.46915 33.834L3.53146 34.745L3.22521 35.0939L2.20118 34.1247L1.96193 35.5009L1.50255 35.4137L1.77052 34.0375L0.488098 34.5027L0.344543 34.1247L1.62697 33.6693L0.564661 32.768L0.880481 32.4191L1.91407 33.3301Z" fill="#303030"/>
</g>
<defs>
<clipPath id="clip0_1_6">
<rect width="65.9682" height="53.7473" fill="white" transform="translate(0 0.0117188)"/>
</clipPath>
</defs>
</svg>
